{"title":"The Serpent And The Rainbow [1988] XviD - DVDRip - BDK","uid":4790710,"size":838897664,"categoryP":"video","categoryS":"movies","magnet":"?xt=urn:btih:7630d056cfea36623d8c1333958d546dd8ad565b&amp;dn=The+Serpent+And+The+Rainbow+%5B1988%5D+XviD+-+DVDRip+-+BDK&amp;tr=udp%3A%2F%2Ftracker.openbittorrent.com%3A80&amp;tr=udp%3A%2F%2Fopen.demonii.com%3A1337&amp;tr=udp%3A%2F%2Ftracker.coppersurfer.tk%3A6969&amp;tr=udp%3A%2F%2Fexodus.desync.com%3A6969","seeders":2,"leechers":1,"uploader":"akhiugo","files":-1,"time":1237708732,"description":"Release Date:\n5 February 1988 (USA)\n\nGenre:    Horror\n\nDirector: Wes Craven\n\nIMDB Rating: 6.2/10 (5,234 Votes)\n\n----------------------------------------------------------------------------------\n\nDennis Allan is an scientist who visits Haiti on the strength of a rumour of a drug which renders the recipient totally paralyzed but conscious. The drug's effects often fool doctors, who declare the victims dead. Could this be the origin of the &quot;zombie&quot; legend? Alan embarks on a surprising and often surreal investigation of the turbulent social chaos that is Haiti during the revolution which ousted hated dictator &quot;Baby Doc&quot; Duvalier. Often a pawn in a greater game, Alan must decide what is science, what is superstition, and what is the unknown in a anarchistic society where police corruption and witch-doctory are commonplace.\n\n----------------------------------------------------------------------------------\n\nGeneral\nComplete name                    : SerpArc.avi\nFormat                           : AVI\nFormat/Info                      : Audio Video Interleave\nFile size                        : 800 MiB\nDuration                         : 1h 33mn\nOverall bit rate                 : 1 191 Kbps\nWriting application              : VirtualDubMod 1.5.4.1 (build 2178/release)\nWriting library                  : VirtualDubMod build 2178/release\n\nVideo\nFormat                           : MPEG-4 Visual\nFormat profile                   : Streaming Video@L1\nFormat settings, BVOP            : Yes\nFormat settings, QPel            : No\nFormat settings, GMC             : No warppoints\nFormat settings, Matrix          : Custom\nCodec ID                         : XVID\nCodec ID/Hint                    : XviD\nDuration                         : 1h 33mn\nBit rate                         : 1 055 Kbps\nWidth                            : 608 pixels\nHeight                           : 352 pixels\nDisplay aspect ratio             : 16/9\nFrame rate                       : 29.970 fps\nResolution                       : 24 bits\nColorimetry                      : 4:2:0\nScan type                        : Progressive\nBits/(Pixel*Frame)               : 0.164\nStream size                      : 708 MiB (89%)\nWriting library                  : XviD 1.2.0.dev47 (UTC 2006-11-01)\n\nAudio\nFormat                           : MPEG Audio\nFormat version                   : Version 1\nFormat profile                   : Layer 3\nCodec ID                         : 55\nCodec ID/Hint                    : MP3\nDuration                         : 1h 33mn\nBit rate mode                    : Constant\nBit rate                         : 128 Kbps\nMinimum bit rate                 : 128 Kbps\nChannel(s)                       : 2 channels\nSampling rate                    : 48.0 KHz\nResolution                       : 16 bits\nStream size                      : 86.0 MiB (11%)\nAlignment                        : Aligned on interleaves\nInterleave, duration             : 67 ms (2.00 video frames)\nInterleave, preload duration     : 504 ms\nWriting library                  : LAME3.97 \nEncoding settings                : CBR\nLanguage                         : English\n\n\n\nPlease help your fellow pirates by seeding after download!","torrent":{"xt":"urn:btih:7630d056cfea36623d8c1333958d546dd8ad565b","amp;dn":"The+Serpent+And+The+Rainbow+%5B1988%5D+XviD+-+DVDRip+-+BDK","amp;tr":["udp%3A%2F%2Ftracker.openbittorrent.com%3A80","udp%3A%2F%2Fopen.demonii.com%3A1337","udp%3A%2F%2Ftracker.coppersurfer.tk%3A6969","udp%3A%2F%2Fexodus.desync.com%3A6969"],"infoHash":"7630d056cfea36623d8c1333958d546dd8ad565b","infoHashBuffer":{"type":"Buffer","data":[118,48,208,86,207,234,54,98,61,140,19,51,149,141,84,109,216,173,86,91]},"announce":[],"urlList":[]}}